<svg id="visual" viewBox="0 0 900 600" width="900" height="600" xmlns="http://www.w3.org/2000/svg" xmlns:xlink="http://www.w3.org/1999/xlink" version="1.1"><rect x="0" y="0" width="900" height="600" fill="#eed8bf"></rect><path d="M0 83L16.7 85.5C33.3 88 66.7 93 100 95.5C133.3 98 166.7 98 200 92.2C233.3 86.3 266.7 74.7 300 70.2C333.3 65.7 366.7 68.3 400 71.2C433.3 74 466.7 77 500 76.2C533.3 75.3 566.7 70.7 600 67.7C633.3 64.7 666.7 63.3 700 64.3C733.3 65.3 766.7 68.7 800 73.7C833.3 78.7 866.7 85.3 883.3 88.7L900 92L900 0L883.3 0C866.7 0 833.3 0 800 0C766.7 0 733.3 0 700 0C666.7 0 633.3 0 600 0C566.7 0 533.3 0 500 0C466.7 0 433.3 0 400 0C366.7 0 333.3 0 300 0C266.7 0 233.3 0 200 0C166.7 0 133.3 0 100 0C66.7 0 33.3 0 16.7 0L0 0Z" fill="#b5752d"></path><path d="M0 56L16.7 59.2C33.3 62.3 66.7 68.7 100 71.5C133.3 74.3 166.7 73.7 200 74.2C233.3 74.7 266.7 76.3 300 72.8C333.3 69.3 366.7 60.7 400 56.5C433.3 52.3 466.7 52.7 500 56.3C533.3 60 566.7 67 600 66.8C633.3 66.7 666.7 59.3 700 60.5C733.3 61.7 766.7 71.3 800 76.8C833.3 82.3 866.7 83.7 883.3 84.3L900 85L900 0L883.3 0C866.7 0 833.3 0 800 0C766.7 0 733.3 0 700 0C666.7 0 633.3 0 600 0C566.7 0 533.3 0 500 0C466.7 0 433.3 0 400 0C366.7 0 333.3 0 300 0C266.7 0 233.3 0 200 0C166.7 0 133.3 0 100 0C66.7 0 33.3 0 16.7 0L0 0Z" fill="#915d27"></path><path d="M0 57L16.7 56C33.3 55 66.7 53 100 51.2C133.3 49.3 166.7 47.7 200 46.7C233.3 45.7 266.7 45.3 300 46C333.3 46.7 366.7 48.3 400 50.7C433.3 53 466.7 56 500 58.2C533.3 60.3 566.7 61.7 600 63.2C633.3 64.7 666.7 66.3 700 66C733.3 65.7 766.7 63.3 800 61.3C833.3 59.3 866.7 57.7 883.3 56.8L900 56L900 0L883.3 0C866.7 0 833.3 0 800 0C766.7 0 733.3 0 700 0C666.7 0 633.3 0 600 0C566.7 0 533.3 0 500 0C466.7 0 433.3 0 400 0C366.7 0 333.3 0 300 0C266.7 0 233.3 0 200 0C166.7 0 133.3 0 100 0C66.7 0 33.3 0 16.7 0L0 0Z" fill="#6d4621"></path><path d="M0 32L16.7 32.5C33.3 33 66.7 34 100 36C133.3 38 166.7 41 200 43.8C233.3 46.7 266.7 49.3 300 49.7C333.3 50 366.7 48 400 47.8C433.3 47.7 466.7 49.3 500 46.7C533.3 44 566.7 37 600 37.3C633.3 37.7 666.7 45.3 700 47.8C733.3 50.3 766.7 47.7 800 45.3C833.3 43 866.7 41 883.3 40L900 39L900 0L883.3 0C866.7 0 833.3 0 800 0C766.7 0 733.3 0 700 0C666.7 0 633.3 0 600 0C566.7 0 533.3 0 500 0C466.7 0 433.3 0 400 0C366.7 0 333.3 0 300 0C266.7 0 233.3 0 200 0C166.7 0 133.3 0 100 0C66.7 0 33.3 0 16.7 0L0 0Z" fill="#4b3019"></path><path d="M0 24L16.7 26.3C33.3 28.7 66.7 33.3 100 32.7C133.3 32 166.7 26 200 25.8C233.3 25.7 266.7 31.3 300 33.7C333.3 36 366.7 35 400 32.7C433.3 30.3 466.7 26.7 500 27.5C533.3 28.3 566.7 33.7 600 34.8C633.3 36 666.7 33 700 31.2C733.3 29.3 766.7 28.7 800 28.3C833.3 28 866.7 28 883.3 28L900 28L900 0L883.3 0C866.7 0 833.3 0 800 0C766.7 0 733.3 0 700 0C666.7 0 633.3 0 600 0C566.7 0 533.3 0 500 0C466.7 0 433.3 0 400 0C366.7 0 333.3 0 300 0C266.7 0 233.3 0 200 0C166.7 0 133.3 0 100 0C66.7 0 33.3 0 16.7 0L0 0Z" fill="#2b1d11"></path><path d="M0 15L16.7 16C33.3 17 66.7 19 100 19.7C133.3 20.3 166.7 19.7 200 17.8C233.3 16 266.7 13 300 13.3C333.3 13.7 366.7 17.3 400 17.5C433.3 17.7 466.7 14.3 500 13.2C533.3 12 566.7 13 600 13.5C633.3 14 666.7 14 700 13.5C733.3 13 766.7 12 800 11C833.3 10 866.7 9 883.3 8.5L900 8L900 0L883.3 0C866.7 0 833.3 0 800 0C766.7 0 733.3 0 700 0C666.7 0 633.3 0 600 0C566.7 0 533.3 0 500 0C466.7 0 433.3 0 400 0C366.7 0 333.3 0 300 0C266.7 0 233.3 0 200 0C166.7 0 133.3 0 100 0C66.7 0 33.3 0 16.7 0L0 0Z" fill="#090401"></path></svg>